<?xml version="1.0" standalone="no"?>
<!DOCTYPE svg PUBLIC "-//W3C//DTD SVG 20010904//EN"
 "http://www.w3.org/TR/2001/REC-SVG-20010904/DTD/svg10.dtd">
<svg version="1.0" xmlns="http://www.w3.org/2000/svg"
 width="700.000000pt" height="700.000000pt" viewBox="0 0 700.000000 700.000000"
 preserveAspectRatio="xMidYMid meet">
<metadata>
Created by potrace 1.14, written by Peter Selinger 2001-2017
</metadata>
<g transform="translate(0.000000,700.000000) scale(0.100000,-0.100000)"
fill="#000000" stroke="none">
<path d="M1715 6526 c-253 -59 -444 -231 -532 -481 l-28 -80 -3 -1865 -2
-1865 716 0 715 0 60 60 c33 33 135 138 227 232 91 95 169 173 173 173 4 0 25
-24 47 -52 44 -59 345 -444 365 -468 7 -8 57 -73 112 -144 55 -70 129 -165
165 -211 36 -45 77 -97 91 -116 39 -50 151 -193 218 -279 32 -41 120 -154 196
-250 75 -96 178 -229 228 -295 51 -65 128 -156 173 -201 66 -67 98 -90 175
-128 165 -81 333 -100 502 -57 95 25 133 42 219 98 244 160 371 478 302 760
-25 100 -72 197 -144 293 -36 47 -67 87 -70 90 -3 3 -111 140 -240 305 -128
165 -253 325 -277 355 -150 191 -358 458 -413 530 -36 47 -71 91 -77 98 -7 7
-34 41 -60 75 -26 34 -60 78 -75 97 -16 19 -32 40 -36 45 -4 6 -79 102 -168
215 -88 113 -191 246 -229 295 -38 50 -72 92 -75 95 -3 3 -19 23 -35 45 -16
22 -37 49 -46 60 -15 17 -165 208 -245 310 -12 17 -110 140 -216 275 -107 135
-200 255 -208 266 -8 11 -28 35 -43 53 l-28 33 -19 -22 c-11 -12 -109 -115
-218 -229 -110 -113 -226 -234 -259 -268 -33 -35 -62 -63 -64 -63 -3 0 -5 348
-5 773 0 424 -3 798 -7 830 -24 210 -143 397 -327 516 -53 34 -92 52 -200 90
-53 19 -263 23 -335 7z"/>
<path d="M4870 6500 c-47 -9 -119 -34 -160 -54 -125 -62 -129 -66 -545 -501
-22 -23 -140 -145 -261 -271 -288 -298 -343 -357 -344 -367 0 -4 35 -51 77
-105 173 -219 224 -283 317 -402 54 -69 105 -134 114 -145 10 -11 57 -72 107
-135 49 -63 131 -168 182 -232 l93 -117 78 80 c42 44 108 113 146 152 37 40
158 165 268 279 109 113 222 231 251 261 29 30 126 132 216 226 178 185 216
233 261 327 61 130 83 310 54 447 -51 244 -232 453 -461 532 -89 31 -110 35
-218 39 -61 3 -117 -2 -175 -14z"/>
<path d="M1233 1662 l-83 -3 0 -273 c0 -150 5 -299 11 -332 59 -333 360 -585
699 -586 102 -1 119 2 208 27 62 18 165 64 170 77 2 4 8 8 14 8 13 0 104 76
143 119 97 110 158 235 181 376 4 22 7 163 8 313 l1 272 -115 0 c-63 1 -349 2
-635 3 -286 1 -557 1 -602 -1z"/>
</g>
</svg>
